<svg xmlns="http://www.w3.org/2000/svg" xmlns:xlink="http://www.w3.org/1999/xlink" viewBox="0 0 630.1 229.45"><defs><style>.cls-1,.cls-10,.cls-11,.cls-12,.cls-8,.cls-9{fill:none;}.cls-2{fill:#231f20;}.cls-3{fill:#f5f6e2;}.cls-4{isolation:isolate;}.cls-5{fill:#c1272d;}.cls-6{fill:#f15a24;}.cls-7{fill:url(#linear-gradient);}.cls-10,.cls-11,.cls-12,.cls-8,.cls-9{stroke-miterlimit:10;stroke-width:7px;}.cls-8{stroke:url(#linear-gradient-2);}.cls-9{stroke:url(#linear-gradient-3);}.cls-10{stroke:url(#linear-gradient-4);}.cls-11{stroke:url(#linear-gradient-5);}.cls-12{stroke:url(#linear-gradient-6);}.cls-13{fill:#b5441b;}.cls-14{fill:#f47b50;}.cls-15{opacity:0.06;mix-blend-mode:multiply;fill:url(#Zebra);}</style><linearGradient id="linear-gradient" x1="315.05" y1="191.45" x2="315.05" y2="15" gradientUnits="userSpaceOnUse"><stop offset="0" stop-color="#ff8f2a"/><stop offset="0.74" stop-color="#ffca2a"/></linearGradient><linearGradient id="linear-gradient-2" x1="74.67" y1="35.53" x2="74.67" y2="175.05" xlink:href="#linear-gradient"/><linearGradient id="linear-gradient-3" x1="195.13" y1="23.23" x2="195.13" y2="180.01" xlink:href="#linear-gradient"/><linearGradient id="linear-gradient-4" x1="336.49" y1="33.12" x2="336.49" y2="179.95" xlink:href="#linear-gradient"/><linearGradient id="linear-gradient-5" x1="457.83" y1="33.84" x2="457.83" y2="177.96" xlink:href="#linear-gradient"/><linearGradient id="linear-gradient-6" x1="555.89" y1="35.53" x2="555.89" y2="175.05" xlink:href="#linear-gradient"/><pattern id="Zebra" data-name="Zebra" width="124.42" height="124.42" patternUnits="userSpaceOnUse" viewBox="0 0 124.42 124.42"><rect class="cls-1" width="124.42" height="124.42"/><path class="cls-2" d="M37.82,251.32c-1.12-3.12-3.27-15.49-4.66-21.8-1.46-6.62,0-3.66-.67-12.66s0-11.34,0-14a67.82,67.82,0,0,1,1.33-18c2-10,1.22-15.78,4.55-26.11s1.67-26,1.67-26l-5.67-15s-1,13.67-1,15.33,1.67,5.34.33,11.34-1.33,19-2.66,21.66-3.34,9.34-3.34,17.34a60.64,60.64,0,0,0,1,12.33c-3-1.67-4.33-8.33-4.33-12s-1.67-6.67,0-9.67-.55-12.89-.55-15.89.67-8,0-16c-.23-2.82-.05-7.75-1.72-10.09s-1.67-9-1.67-10.33-8.88,2.68-8.88,2.68a133.7,133.7,0,0,0,3.22,13c1.66,5.77-.28,6.42,1.72,14.75S20,167.08,19.7,173.42s2.34,21,2.34,26,2.33,4.33.66,10.66S16,224.49,19.91,231.56c.17,3.15-1.83,7.15-3.21,8.9s-7.34,6-4.46,10.12h8.34a27.27,27.27,0,0,1-.13-3.87c.05-2.67,1.13-4.13,2.38-7.13s1.75-6.75,1.25-9c3.12,2.75,5.87,5.75,6.37,11.38s3,5.62,3.38,6.75S37.82,251.32,37.82,251.32Z"/><path class="cls-2" d="M44.58,124.21c.38,7.16,5.77,13.9,5.14,18.91-.66,5.34-7.33,11.34-7.33,23.34s3,10.33,4,21-2,4-3.67,15.33-3.66,18-2.33,27.67,3,11.5,4.33,19-.66,14.33,5.34,8,9.83-7.4,9.14-8.65c-2.88-5.24-7.48-20-4.81-28.35s-2.9-11.27-.57-20.94,10.67-26.33,10.67-29.33,1.23-13.73,2.23-20.07.67-11-4.66-20.33c-1.28-2.23-2.18-4-3-5.65Z"/><path class="cls-2" d="M66.63,124.09c1.05,2.22,3.08,5.76,4.82,15.33,1.91,10.5,2,5.77-.63,21.77s6,20,5,40.33-13,22.56-12.37,32.56,9,31.67,10,32.67,5,3.33,5-4.33-2-18-.66-24.67,6.33-18.67,7.33-24.33,4-6,7-16.67-4.63-12.23-7.63-21.89-2.33-16-3.33-19.34a72.48,72.48,0,0,1-2.71-17.1c-.18-6.67-.53-8.5-.94-14.52Z"/><path class="cls-2" d="M104,228.16c1,1.83-1.2,11.23-1.55,21.08l-13.94.1c.27-2,.86-4.12,1.15-6.51a69.73,69.73,0,0,0,0-9.08c-.33-7,7-18.67,10-26.33s6.79-15.23,6.79-24.56S97,162.75,92.7,151.75s-6.33-17.67-3-33.33c0,0,12.92-17.14,14.34-14.67s-1.49,17.07-2.34,29.33c-.49,7.11,4.45,13.11,5.12,16.11s0,7,1.67,15.67,11,19.66,10.33,28.33c-.49,6.42,1.12,14.11-7,27C110.33,222.57,104,228.16,104,228.16Z"/><path class="cls-2" d="M125.53,123.8c-.08,6.1-1.62,12.81.92,21.28,3,10,9.59,9,8.92,22.34-.67,13.49-1.49,29.24,1.08,39,1.67,6.33,4.67,14.33,1.34,22.33-6.26,15-11.43,9.23-12.34,20.33-1,12.34-3.41,14-3.41,14-3-5-5-6.66-5.34-13.66s.09-13,3.09-24.34,6.66-22.33,4-30.66-2-13-5.34-21.34-.29-6.56-2-18.22c-2.37-16.57-.54-12.29-.54-21.4,0-3.2.47-5.66.75-9.38Z"/><path class="cls-2" d="M1.12,123.8C1,129.9-.5,136.61,2,145.08c3,10,9.58,9,8.92,22.34-.68,13.49-1.49,29.24,1.08,39,1.67,6.33,4.67,14.33,1.33,22.33C7.12,243.76,1.94,238,1,249.08c-1,12.34-3.42,14-3.42,14-3-5-5-6.66-5.33-13.66s.08-13,3.08-24.34,6.67-22.33,4-30.66-2-13-5.33-21.34-.3-6.56-2-18.22c-2.37-16.57-.54-12.29-.54-21.4,0-3.2.46-5.66.75-9.38Z"/><path class="cls-2" d="M125.52.05c-.08,6.1-1.62,12.81.92,21.28,3,10,9.59,9,8.92,22.34s-1.49,29.24,1.08,39C138.11,89,141.11,97,137.78,105c-6.26,15-11.44,9.23-12.34,20.33-1,12.34-3.41,14-3.41,14-3-5-5-6.66-5.34-13.66s.09-13,3.09-24.34,6.66-22.33,4-30.66-2-13-5.34-21.34-.29-6.56-2-18.22c-2.37-16.57-.54-12.29-.54-21.4,0-3.2.47-5.66.75-9.38Z"/><rect class="cls-3" width="124.42" height="124.42"/><path class="cls-2" d="M37.82,126.91c-1.12-3.13-3.27-15.5-4.66-21.8-1.46-6.63,0-3.67-.67-12.67s0-11.33,0-14a67.82,67.82,0,0,1,1.33-18c2-10,1.22-15.77,4.55-26.11S40,8.33,40,8.33l-5.67-15s-1,13.67-1,15.34S35,14,33.7,20,32.37,39,31,41.67,27.7,51,27.7,59a60.64,60.64,0,0,0,1,12.33c-3-1.66-4.33-8.33-4.33-12s-1.67-6.66,0-9.66-.55-12.9-.55-15.9.67-8,0-16C23.59,15,23.77,10,22.1,7.69s-1.67-9-1.67-10.34S11.55,0,11.55,0a133.7,133.7,0,0,0,3.22,13c1.66,5.77-.28,6.42,1.72,14.75S20,42.67,19.7,49,22,70,22,75s2.33,4.33.66,10.67-6.67,14.4-2.79,21.48c.17,3.14-1.83,7.14-3.21,8.89s-7.34,6-4.46,10.13h8.34a27.52,27.52,0,0,1-.13-3.88c.05-2.67,1.13-4.12,2.38-7.12s1.75-6.75,1.25-9c3.12,2.75,5.87,5.75,6.37,11.37s3,5.63,3.38,6.75S37.82,126.91,37.82,126.91Z"/><path class="cls-2" d="M44.58-.21C45,7,50.35,13.7,49.72,18.71,49.06,24,42.39,30,42.39,42s3,10.33,4,21-2,4-3.67,15.33-3.66,18-2.33,27.67,3,11.5,4.33,19-.66,14.33,5.34,8,9.83-7.4,9.14-8.65c-2.88-5.24-7.48-20-4.81-28.35s-2.9-11.27-.57-20.93S64.49,48.77,64.49,45.77,65.72,32,66.72,25.71s.67-11-4.66-20.34c-1.28-2.22-2.18-3.95-3-5.64Z"/><path class="cls-2" d="M66.63-.33C67.68,1.89,69.71,5.44,71.45,15c1.91,10.5,2,5.77-.63,21.77s6,20,5,40.34-13,22.56-12.37,32.56,9,31.66,10,32.66,5,3.34,5-4.33-2-18-.66-24.67S84.12,94.67,85.12,89s4-6,7-16.67-4.63-12.22-7.63-21.89-2.33-16-3.33-19.33A72.67,72.67,0,0,1,78.45,14c-.18-6.67-.53-8.5-.94-14.52Z"/><path class="cls-2" d="M104,103.75c1,1.83-1.2,11.22-1.55,21.07l-13.94.1c.27-2,.86-4.11,1.15-6.5a69.9,69.9,0,0,0,0-9.09c-.33-7,7-18.66,10-26.33s6.79-15.23,6.79-24.56S97,38.33,92.7,27.33,86.37,9.67,89.7-6c0,0,12.92-17.14,14.34-14.67S102.55-3.59,101.7,8.67c-.49,7.11,4.45,13.1,5.12,16.1s0,7,1.67,15.67,11,19.67,10.33,28.33c-.49,6.42,1.12,14.11-7,27C110.33,98.15,104,103.75,104,103.75Z"/><path class="cls-2" d="M125.53-.62c-.08,6.1-1.62,12.81.92,21.29,3,10,9.59,9,8.92,22.33-.67,13.49-1.49,29.24,1.08,39,1.67,6.33,4.67,14.33,1.34,22.33-6.26,15-11.43,9.23-12.34,20.34-1,12.33-3.41,14-3.41,14-3-5-5-6.67-5.34-13.67s.09-13,3.09-24.33,6.66-22.34,4-30.67-2-13-5.34-21.33-.29-6.56-2-18.23C114.12,13.87,116,18.15,116,9c0-3.19.47-5.65.75-9.37Z"/><path class="cls-2" d="M1.11.05C1,6.15-.51,12.86,2,21.33c3,10,9.58,9,8.91,22.34S9.46,72.91,12,82.67C13.69,89,16.69,97,13.36,105,7.11,120,1.93,114.23,1,125.33c-1,12.34-3.42,14-3.42,14-3-5-5-6.66-5.33-13.66s.08-13,3.08-24.34S2,79-.64,70.67s-2-13-5.33-21.34-.3-6.56-2-18.22c-2.37-16.57-.54-12.29-.54-21.4,0-3.2.46-5.66.75-9.38Z"/><path class="cls-2" d="M1.12-.62C1,5.48-.5,12.19,2,20.67c3,10,9.58,9,8.92,22.33C10.28,56.49,9.47,72.24,12,82c1.67,6.33,4.67,14.33,1.33,22.33-6.25,15-11.43,9.23-12.33,20.34-1,12.33-3.42,14-3.42,14-3-5-5-6.67-5.33-13.67s.08-13,3.08-24.33S2,78.33-.63,70-2.63,57-6,48.67s-.3-6.56-2-18.23C-10.29,13.87-8.46,18.15-8.46,9c0-3.19.46-5.65.75-9.37Z"/><path class="cls-2" d="M125.52-124.36c-.08,6.09-1.62,12.8.92,21.28,3,10,9.59,9,8.92,22.33-.67,13.49-1.49,29.24,1.08,39,1.67,6.33,4.67,14.33,1.34,22.33-6.26,15-11.44,9.24-12.34,20.34-1,12.33-3.41,14-3.41,14-3-5-5-6.67-5.34-13.67s.09-13,3.09-24.33,6.66-22.34,4-30.67-2-13-5.34-21.33-.29-6.56-2-18.23c-2.37-16.57-.54-12.29-.54-21.4,0-3.19.47-5.65.75-9.37Z"/><path class="cls-2" d="M37.82,2.49C36.7-.63,34.55-13,33.16-19.31c-1.46-6.62,0-3.67-.67-12.67s0-11.33,0-14a67.84,67.84,0,0,1,1.33-18c2-10,1.22-15.77,4.55-26.1s1.67-26,1.67-26l-5.67-15s-1,13.66-1,15.33,1.67,5.33.33,11.33-1.33,19-2.66,21.67S27.7-73.42,27.7-65.42a60.81,60.81,0,0,0,1,12.34c-3-1.67-4.33-8.34-4.33-12s-1.67-6.67,0-9.67-.55-12.89-.55-15.89.67-8,0-16c-.23-2.82-.05-7.76-1.72-10.09s-1.67-9-1.67-10.33-8.88,2.67-8.88,2.67a132.85,132.85,0,0,0,3.22,13c1.66,5.78-.28,6.42,1.72,14.76S20-81.75,19.7-75.42s2.34,21,2.34,26,2.33,4.34.66,10.67S16-24.34,19.91-17.27c.17,3.15-1.83,7.15-3.21,8.9s-7.34,6-4.46,10.12h8.34a27.27,27.27,0,0,1-.13-3.87c.05-2.68,1.13-4.13,2.38-7.13s1.75-6.75,1.25-9C27.2-15.5,30-12.5,30.45-6.87s3,5.62,3.38,6.75S37.82,2.49,37.82,2.49Z"/><path class="cls-2" d="M44.58-124.62c.38,7.16,5.77,13.9,5.14,18.91-.66,5.34-7.33,11.34-7.33,23.34s3,10.33,4,21-2,4-3.67,15.33-3.66,18-2.33,27.67,3,11.5,4.33,19-.66,14.34,5.34,8S59.89,1.23,59.2,0c-2.88-5.25-7.48-20-4.81-28.35s-2.9-11.27-.57-20.94S64.49-75.64,64.49-78.64s1.23-13.73,2.23-20.07.67-11-4.66-20.33c-1.28-2.23-2.18-4-3-5.65Z"/><path class="cls-2" d="M66.63-124.74c1.05,2.22,3.08,5.76,4.82,15.32,1.91,10.5,2,5.78-.63,21.78s6,20,5,40.33-13,22.56-12.37,32.56,9,31.67,10,32.67,5,3.33,5-4.34-2-18-.66-24.66,6.33-18.67,7.33-24.34,4-6,7-16.66S87.49-64.31,84.49-74s-2.33-16-3.33-19.33a72.58,72.58,0,0,1-2.71-17.11c-.18-6.66-.53-8.49-.94-14.52Z"/><path class="cls-2" d="M104-20.67c1,1.83-1.2,11.23-1.55,21.08L88.55.5c.27-2,.86-4.11,1.15-6.5a69.73,69.73,0,0,0,0-9.08c-.33-7,7-18.67,10-26.34s6.79-15.22,6.79-24.56S97-86.08,92.7-97.08s-6.33-17.67-3-33.34c0,0,12.92-17.14,14.34-14.66s-1.49,17.07-2.34,29.33c-.49,7.11,4.45,13.11,5.12,16.11s0,7,1.67,15.66,11,19.67,10.33,28.34c-.49,6.42,1.12,14.1-7,27C110.33-26.27,104-20.67,104-20.67Z"/><path class="cls-2" d="M125.53-125c-.08,6.1-1.62,12.81.92,21.28,3,10,9.59,9,8.92,22.33-.67,13.49-1.49,29.25,1.08,39,1.67,6.34,4.67,14.34,1.34,22.34-6.26,15-11.43,9.23-12.34,20.33-1,12.33-3.41,14-3.41,14-3-5-5-6.67-5.34-13.67s.09-13,3.09-24.33,6.66-22.33,4-30.67-2-13-5.34-21.33-.29-6.56-2-18.23c-2.37-16.56-.54-12.28-.54-21.39,0-3.2.47-5.66.75-9.38Z"/><path class="cls-2" d="M1.11-124.36C1-118.27-.51-111.56,2-103.08c3,10,9.58,9,8.91,22.33-.67,13.49-1.48,29.24,1.09,39,1.66,6.33,4.66,14.33,1.33,22.33C7.11-4.4,1.93-10.18,1,.92c-1,12.33-3.42,14-3.42,14-3-5-5-6.67-5.33-13.67s.08-13,3.08-24.33S2-45.42-.64-53.75s-2-13-5.33-21.33-.3-6.56-2-18.23c-2.37-16.57-.54-12.29-.54-21.4,0-3.19.46-5.65.75-9.37Z"/><path class="cls-2" d="M1.12-125C1-118.93-.5-112.22,2-103.75c3,10,9.58,9,8.92,22.33-.68,13.49-1.49,29.25,1.08,39,1.67,6.34,4.67,14.34,1.33,22.34C7.12-5.07,1.94-10.85,1,.25c-1,12.33-3.42,14-3.42,14-3-5-5-6.67-5.33-13.67s.08-13,3.08-24.33S2-46.08-.63-54.42s-2-13-5.33-21.33-.3-6.56-2-18.23c-2.37-16.56-.54-12.28-.54-21.39,0-3.2.46-5.66.75-9.38Z"/></pattern></defs><title>Asset 1</title><g class="cls-4"><g id="Layer_2" data-name="Layer 2"><g id="Layer_1-2" data-name="Layer 1"><path class="cls-5" d="M629.87,43A30,30,0,0,0,600.1,9.34c-.74,0-1.48,0-2.23.08L509,16a29.85,29.85,0,0,0-18.73,8.49,30,30,0,0,0-31-16.33L410.8,14.94a30,30,0,0,0-15.09,6.65c-1.19-.72-2.38-1.41-3.57-2.06a105.83,105.83,0,0,0-22.62-9.39,95.6,95.6,0,0,0-19.61-3.33c-2.29-.13-4.43-.19-6.35-.19a63.72,63.72,0,0,0-8.19.47l-2,.25a29.35,29.35,0,0,0-3.76.54,111.54,111.54,0,0,0-30.16,11,119.69,119.69,0,0,0-25.28,18.19A115.45,115.45,0,0,0,254.6,61.33q-1.93,3.2-3.63,6.5L215.26,13.52A29.89,29.89,0,0,0,190.2,0L189,0A30.19,30.19,0,0,0,163.93,15.5L148.62,43.24l0-.25A30,30,0,0,0,118.87,9.34c-.73,0-1.48,0-2.22.08L27.78,16A30.08,30.08,0,0,0,0,46.21L.18,65.76A30.18,30.18,0,0,0,0,69.21L1.13,194.63a30,30,0,0,0,30,29.73c.54,0,1.08,0,1.62-.05l86.14-4.66a30,30,0,0,0,9.55-2.11l29.28,9.53a30,30,0,0,0,36.91-16.82l.59,1a30,30,0,0,0,36.36,12.62l38.27-14.5a83.45,83.45,0,0,0,25.47,14.76,91.36,91.36,0,0,0,28.75,5.3l2.68,0a106.78,106.78,0,0,0,49.4-12.06,93,93,0,0,0,12.6-7.92,30,30,0,0,0,27.32,17.63c1,0,2-.06,3-.16l76.47-7.72a29.87,29.87,0,0,0,16.79,5.14c.54,0,1.09,0,1.63-.05l86.13-4.66a30.11,30.11,0,0,0,28.37-29.42l.81-44.43a30.33,30.33,0,0,0-.33-5l.33-18a30.06,30.06,0,0,0-4.4-16.17l5-40.64a30,30,0,0,0-1.23-12.92Z"/><path class="cls-6" d="M593.27,90.43l14-26c.55-4.45,3.1-8.75,0-12-2.84-3-3.09-5.09-7.17-5.09-.37,0-.74,0-1.11,0L510.11,54a15,15,0,0,0-13.89,15.09l.54,59.39c-.38,0-.77.1-1.15.18l-20.51,4.27,3.29-71.33a15,15,0,0,0-15-15.69,16.27,16.27,0,0,0-2.08.14L412.87,52.8A15,15,0,0,0,400,66.25,89.19,89.19,0,0,0,385,55.69a91,91,0,0,0-19.36-8.07,80.73,80.73,0,0,0-16.49-2.84c-2-.1-3.88-.16-5.54-.16a48.17,48.17,0,0,0-6.27.35l-2.54.31a14.31,14.31,0,0,0-2.07.28,96.53,96.53,0,0,0-26.11,9.53A104,104,0,0,0,284.47,71a100.28,100.28,0,0,0-17,21.1,90.27,90.27,0,0,0-10.51,25.37c-.6,2.46-1.09,5-1.48,7.48L202.73,44.76A15,15,0,0,0,190.2,38h-.58a15,15,0,0,0-12.56,7.74l-48.84,88.47a15,15,0,0,0-10.15-4c-.47,0-.94,0-1.41.07l-1.34.13,1.52-12.67c6.25-1.26-7.36-10.85-6.57-17.35l14-37c.55-4.45,8.56-8.19,5.46-11.44a15,15,0,0,0-10.86-4.65c-.37,0-.74,0-1.11,0L28.89,54A15,15,0,0,0,15,69.07l1.13,125.42a15,15,0,0,0,15,14.87l.81,0,86.13-4.67a14.9,14.9,0,0,0,8.75-3.44l35.55,11.58a15,15,0,0,0,19.11-10.31L185.17,189l13.93-.47,9,15a15,15,0,0,0,18.18,6.31L273.4,192a58.51,58.51,0,0,0,5.26,5.19A68.56,68.56,0,0,0,300.4,210a76.15,76.15,0,0,0,24,4.43l2.32,0a91.56,91.56,0,0,0,42.44-10.35,72.8,72.8,0,0,0,17.73-12.82c.42-.43.77-.79,3.95-4.4a125.71,125.71,0,0,0,8.57-11.28c.48-.7.95-1.41,1.43-2.13l.2,23.76a15,15,0,0,0,15,14.87c.5,0,1,0,1.51-.08l83-8.38a14.6,14.6,0,0,0,1.5,1.65,15,15,0,0,0,10.26,4.07l.81,0,86.14-4.67A15,15,0,0,0,613.48,190l.81-44.43a15,15,0,0,0-15-15.28c-.47,0-.94,0-1.41.07l-1.33.13,1.52-12.67C598.27,117.43,592.48,96.93,593.27,90.43ZM399,99.57l1.24-1.31v1.16Z"/><path class="cls-7" d="M610,81.9l5-40.74A15,15,0,0,0,600.1,24.34c-.37,0-.74,0-1.11,0L510.11,31a15,15,0,0,0-13.89,15.09l.54,59.39c-.38.05-.77.1-1.15.18l-20.51,4.27,3.29-71.33a15,15,0,0,0-15-15.69,16.27,16.27,0,0,0-2.08.14L412.87,29.8A15,15,0,0,0,400,43.25,89.19,89.19,0,0,0,385,32.69a91,91,0,0,0-19.36-8.07,80.73,80.73,0,0,0-16.49-2.84c-2-.1-3.88-.16-5.54-.16a48.17,48.17,0,0,0-6.27.35l-2.54.31a14.31,14.31,0,0,0-2.07.28,96.53,96.53,0,0,0-26.11,9.53A104,104,0,0,0,284.47,48a100.28,100.28,0,0,0-17,21.1,90.27,90.27,0,0,0-10.51,25.37c-.6,2.46-1.09,5-1.48,7.48L202.73,21.76A15,15,0,0,0,190.2,15h-.58a15,15,0,0,0-12.56,7.74l-48.84,88.47a15,15,0,0,0-10.15-4c-.47,0-.94,0-1.41.07l-1.34.13,1.52-12.67A15,15,0,0,0,128.77,81.9l5-40.74a15,15,0,0,0-14.89-16.82c-.37,0-.74,0-1.11,0L28.89,31A15,15,0,0,0,15,46.07l1.13,125.42a15,15,0,0,0,15,14.87l.81,0,86.13-4.67a14.9,14.9,0,0,0,8.75-3.44l35.55,11.58a15,15,0,0,0,19.11-10.31L185.17,166l13.93-.47,9,15a15,15,0,0,0,18.18,6.31L273.4,169a58.51,58.51,0,0,0,5.26,5.19A68.56,68.56,0,0,0,300.4,187a76.15,76.15,0,0,0,24,4.43l2.32,0a91.56,91.56,0,0,0,42.44-10.35,72.8,72.8,0,0,0,17.73-12.82c.42-.43.77-.79,3.95-4.4a125.71,125.71,0,0,0,8.57-11.28c.48-.7.95-1.41,1.43-2.13l.2,23.76a15,15,0,0,0,15,14.87c.5,0,1,0,1.51-.08l83-8.38a14.6,14.6,0,0,0,1.5,1.65,15,15,0,0,0,10.26,4.07l.81,0,86.14-4.67A15,15,0,0,0,613.48,167l.81-44.43a15,15,0,0,0-15-15.28c-.47,0-.94,0-1.41.07l-1.33.13,1.52-12.67A15,15,0,0,0,610,81.9ZM399,76.57l1.24-1.31v1.16Z"/><polygon class="cls-8" points="72.34 117.75 99.23 115.65 102.61 87.48 73.31 89.57 73.47 81.84 113.88 80.07 118.87 39.34 30 45.94 31.13 171.36 117.26 166.69 118.07 122.25 72.02 126.6 72.34 117.75"/><path class="cls-9" d="M118.55,159.77,167,175.54l6.6-24.15,33.81-1.12L221,172.81l50.55-19.16L190.2,30Zm82.59-37.36L182,125.8l11.11-25.28Z"/><path class="cls-10" d="M332.84,100,330.26,126l22.87-4.35a23.26,23.26,0,0,1-5.88,8.29,32.74,32.74,0,0,1-8.78,5.8,26.88,26.88,0,0,1-9.82,2.41,17.7,17.7,0,0,1-9.09-1.85,16.35,16.35,0,0,1-6.77-6.84q-2.66-4.75-2.49-12.64a33.07,33.07,0,0,1,3.46-15.3,38.29,38.29,0,0,1,8.78-11.43,40.43,40.43,0,0,1,11.75-7.24,33.25,33.25,0,0,1,12.4-2.58,23.89,23.89,0,0,1,11,2.5,15,15,0,0,1,7.17,8L395,59a79.23,79.23,0,0,0-17.23-13.12,75.2,75.2,0,0,0-16.1-6.76,65.55,65.55,0,0,0-13.36-2.34,55.46,55.46,0,0,0-9.1.08c-2.09.27-3.25.41-3.46.41a80.83,80.83,0,0,0-22.06,8,88.71,88.71,0,0,0-18.92,13.6,85.4,85.4,0,0,0-14.49,17.95,74.86,74.86,0,0,0-10.7,44.36,69.19,69.19,0,0,0,6.28,24.07,49.66,49.66,0,0,0,12.63,17.55,53.65,53.65,0,0,0,17,10.06,61,61,0,0,0,19.32,3.54,76.64,76.64,0,0,0,37.43-8.61,57.27,57.27,0,0,0,14.09-10.15c.21-.21,1.31-1.45,3.3-3.7a113.15,113.15,0,0,0,7.49-9.9,122.86,122.86,0,0,0,8.61-14.73,82.94,82.94,0,0,0,6.44-18.12,53.81,53.81,0,0,0,.89-20Z"/><polygon class="cls-11" points="459.22 128.53 463.41 37.89 414.95 44.65 416.07 174.09 500.6 165.56 498.67 120.32 459.22 128.53"/><polygon class="cls-12" points="553.57 117.75 580.46 115.65 583.84 87.48 554.53 89.57 554.7 81.84 595.11 80.07 600.1 39.34 511.22 45.94 512.35 171.36 598.49 166.69 599.29 122.25 553.25 126.6 553.57 117.75"/><polygon class="cls-13" points="72.34 117.75 99.23 115.65 102.61 87.48 73.31 89.57 73.47 81.84 113.88 80.07 118.87 39.34 30 45.94 31.13 171.36 117.26 166.69 118.07 122.25 72.02 126.6 72.34 117.75"/><path class="cls-14" d="M38.06,55.43,111.89,50l-3.24,26.39L74.16,77.85a7,7,0,0,0-6.69,6.85l-.16,7.72a7,7,0,0,0,7,7.15l.5,0,20.84-1.49L94,112.12,72.8,113.77a7,7,0,0,0-6.45,6.72L66,129.35a7,7,0,0,0,7,7.25q.33,0,.66,0L111.93,133l-.55,30.09L39.06,167Z"/><path class="cls-13" d="M118.55,159.77,167,175.54l6.6-24.15,33.81-1.12L221,172.81l50.55-19.16L190.2,30Zm82.59-37.36L182,125.8l11.11-25.28Z"/><path class="cls-14" d="M129.77,158.73,191.72,46.54,261.85,153.2l-36.91,14-10.52-17.52a7,7,0,0,0-6-3.4h-.23l-33.81,1.13a7,7,0,0,0-6.52,5.15l-4.66,17.06Zm64.32-62.21a7,7,0,0,0-6.41,4.18L176.58,126a7,7,0,0,0,6.4,9.82,7.19,7.19,0,0,0,1.22-.11l19.16-3.38a7,7,0,0,0,5.35-9.31l-8.05-21.9a7,7,0,0,0-6.35-4.58Z"/><path class="cls-13" d="M332.84,100,330.26,126l22.87-4.35a23.26,23.26,0,0,1-5.88,8.29,32.74,32.74,0,0,1-8.78,5.8,26.88,26.88,0,0,1-9.82,2.41,17.7,17.7,0,0,1-9.09-1.85,16.35,16.35,0,0,1-6.77-6.84q-2.66-4.75-2.49-12.64a33.07,33.07,0,0,1,3.46-15.3,38.29,38.29,0,0,1,8.78-11.43,40.43,40.43,0,0,1,11.75-7.24,33.25,33.25,0,0,1,12.4-2.58,23.89,23.89,0,0,1,11,2.5,15,15,0,0,1,7.17,8L395,59a79.23,79.23,0,0,0-17.23-13.12,75.2,75.2,0,0,0-16.1-6.76,65.55,65.55,0,0,0-13.36-2.34,55.46,55.46,0,0,0-9.1.08c-2.09.27-3.25.41-3.46.41a80.83,80.83,0,0,0-22.06,8,88.71,88.71,0,0,0-18.92,13.6,85.4,85.4,0,0,0-14.49,17.95,74.86,74.86,0,0,0-10.7,44.36,69.19,69.19,0,0,0,6.28,24.07,49.66,49.66,0,0,0,12.63,17.55,53.65,53.65,0,0,0,17,10.06,61,61,0,0,0,19.32,3.54,76.64,76.64,0,0,0,37.43-8.61,57.27,57.27,0,0,0,14.09-10.15c.21-.21,1.31-1.45,3.3-3.7a113.15,113.15,0,0,0,7.49-9.9,122.86,122.86,0,0,0,8.61-14.73,82.94,82.94,0,0,0,6.44-18.12,53.81,53.81,0,0,0,.89-20Z"/><path class="cls-14" d="M327.75,172.45c-.6,0-1.2,0-1.79,0a54.09,54.09,0,0,1-17.12-3.13,46.67,46.67,0,0,1-14.77-8.77,42.8,42.8,0,0,1-10.84-15.11,62.92,62.92,0,0,1-5.68-21.68,68,68,0,0,1,9.71-40.27A78.94,78.94,0,0,1,300.56,67,82.61,82.61,0,0,1,318,54.46a74.48,74.48,0,0,1,19.73-7.27c.58-.06,1.56-.17,3.36-.4a27.12,27.12,0,0,1,3.47-.17c1.27,0,2.73,0,4.36.13a58.79,58.79,0,0,1,11.9,2.1A69.33,69.33,0,0,1,375.4,55,66.14,66.14,0,0,1,386,62.34l-19.36,20.4a21.87,21.87,0,0,0-4.74-3.25,31.1,31.1,0,0,0-14.2-3.26,40.49,40.49,0,0,0-15,3.08,47.65,47.65,0,0,0-13.77,8.48,45.38,45.38,0,0,0-10.39,13.51,40,40,0,0,0-4.23,18.41c-.12,6.46,1,11.89,3.39,16.13a23.23,23.23,0,0,0,9.69,9.66,24.52,24.52,0,0,0,11.25,2.64c.45,0,.9,0,1.36,0a34.09,34.09,0,0,0,12.36-3,40.05,40.05,0,0,0,10.63-7,30.29,30.29,0,0,0,7.61-10.78,7,7,0,0,0-6.46-9.67,7.17,7.17,0,0,0-1.31.12l-13.66,2.6,1.09-11,57.34-7.23a47.2,47.2,0,0,1-1.25,10.57,76.48,76.48,0,0,1-5.89,16.59,115.29,115.29,0,0,1-8.11,13.88,107.2,107.2,0,0,1-7,9.25c-2.23,2.53-2.87,3.24-3.05,3.43A51,51,0,0,1,360,164.62a69.49,69.49,0,0,1-32.22,7.83Z"/><polygon class="cls-13" points="459.22 128.53 463.41 37.89 414.95 44.65 416.07 174.09 500.6 165.56 498.67 120.32 459.22 128.53"/><path class="cls-14" d="M423,53.73,457,49l-3.8,82.22a7,7,0,0,0,7,7.32,7.62,7.62,0,0,0,1.43-.14L493,131.85l1.29,30.41L424,169.36Z"/><polygon class="cls-13" points="553.57 117.75 580.46 115.65 583.84 87.48 554.53 89.57 554.7 81.84 595.11 80.07 600.1 39.34 511.22 45.94 512.35 171.36 598.49 166.69 599.29 122.25 553.25 126.6 553.57 117.75"/><path class="cls-14" d="M519.28,55.43,593.11,50l-3.23,26.39-34.49,1.51a7,7,0,0,0-6.69,6.85l-.17,7.72a7,7,0,0,0,7,7.15l.5,0,20.85-1.49-1.69,14.06L554,113.77a7,7,0,0,0-6.45,6.72l-.32,8.86a7,7,0,0,0,7,7.25q.33,0,.66,0L593.15,133l-.54,30.09L520.29,167Z"/><path class="cls-15" d="M37.06,55.43,110.89,50l-3.24,26.39L73.16,77.85a7,7,0,0,0-6.69,6.85l-.16,7.72a7,7,0,0,0,7,7.15l.5,0,20.84-1.49L93,112.12,71.8,113.77a7,7,0,0,0-6.45,6.72L65,129.35a7,7,0,0,0,7,7.25q.33,0,.66,0L110.93,133l-.55,30.09L38.06,167Z"/><path class="cls-15" d="M128.77,158.73,190.72,46.54,260.85,153.2l-36.91,14-10.52-17.52a7,7,0,0,0-6-3.4h-.23l-33.81,1.13a7,7,0,0,0-6.52,5.15l-4.66,17.06Zm64.32-62.21a7,7,0,0,0-6.41,4.18L175.58,126a7,7,0,0,0,6.4,9.82,7.19,7.19,0,0,0,1.22-.11l19.16-3.38a7,7,0,0,0,5.35-9.31l-8.05-21.9a7,7,0,0,0-6.35-4.58Z"/><path class="cls-15" d="M326.75,172.45c-.6,0-1.2,0-1.79,0a54.09,54.09,0,0,1-17.12-3.13,46.67,46.67,0,0,1-14.77-8.77,42.8,42.8,0,0,1-10.84-15.11,62.92,62.92,0,0,1-5.68-21.68,68,68,0,0,1,9.71-40.27A78.94,78.94,0,0,1,299.56,67,82.61,82.61,0,0,1,317,54.46a74.48,74.48,0,0,1,19.73-7.27c.58-.06,1.56-.17,3.36-.4a27.12,27.12,0,0,1,3.47-.17c1.27,0,2.73,0,4.36.13a58.79,58.79,0,0,1,11.9,2.1A69.33,69.33,0,0,1,374.4,55,66.14,66.14,0,0,1,385,62.34l-19.36,20.4a21.87,21.87,0,0,0-4.74-3.25,31.1,31.1,0,0,0-14.2-3.26,40.49,40.49,0,0,0-15,3.08,47.65,47.65,0,0,0-13.77,8.48,45.38,45.38,0,0,0-10.39,13.51,40,40,0,0,0-4.23,18.41c-.12,6.46,1,11.89,3.39,16.13a23.23,23.23,0,0,0,9.69,9.66,24.52,24.52,0,0,0,11.25,2.64c.45,0,.9,0,1.36,0a34.09,34.09,0,0,0,12.36-3,40.05,40.05,0,0,0,10.63-7,30.29,30.29,0,0,0,7.61-10.78,7,7,0,0,0-6.46-9.67,7.17,7.17,0,0,0-1.31.12l-13.66,2.6,1.09-11,57.34-7.23a47.2,47.2,0,0,1-1.25,10.57,76.48,76.48,0,0,1-5.89,16.59,115.29,115.29,0,0,1-8.11,13.88,107.2,107.2,0,0,1-7,9.25c-2.23,2.53-2.87,3.24-3.05,3.43A51,51,0,0,1,359,164.62a69.49,69.49,0,0,1-32.22,7.83Z"/><path class="cls-15" d="M422,53.73,456,49l-3.8,82.22a7,7,0,0,0,7,7.32,7.62,7.62,0,0,0,1.43-.14L492,131.85l1.29,30.41L423,169.36Z"/><path class="cls-15" d="M518.28,55.43,592.11,50l-3.23,26.39-34.49,1.51a7,7,0,0,0-6.69,6.85l-.17,7.72a7,7,0,0,0,7,7.15l.5,0,20.85-1.49-1.69,14.06L553,113.77a7,7,0,0,0-6.45,6.72l-.32,8.86a7,7,0,0,0,7,7.25q.33,0,.66,0L592.15,133l-.54,30.09L519.29,167Z"/></g></g></g></svg>